<?xml version="1.0" standalone="no"?>
<!DOCTYPE svg PUBLIC "-//W3C//DTD SVG 20010904//EN"
 "http://www.w3.org/TR/2001/REC-SVG-20010904/DTD/svg10.dtd">
<svg version="1.0" xmlns="http://www.w3.org/2000/svg"
 width="700.000000pt" height="700.000000pt" viewBox="0 0 700.000000 700.000000"
 preserveAspectRatio="xMidYMid meet">
<metadata>
Created by potrace 1.14, written by Peter Selinger 2001-2017
</metadata>
<g transform="translate(0.000000,700.000000) scale(0.100000,-0.100000)"
fill="#000000" stroke="none">
<path d="M3300 6770 c-588 -38 -1129 -221 -1615 -545 -726 -484 -1225 -1226
-1395 -2075 -46 -231 -62 -398 -62 -650 0 -252 16 -419 62 -650 158 -791 605
-1494 1263 -1985 43 -32 79 -56 81 -54 18 22 1790 2577 1793 2586 5 13 31 -1
-727 403 -333 178 -615 332 -628 343 -47 43 -53 138 -13 188 11 13 654 497
1430 1074 775 578 1410 1052 1410 1055 1 6 -191 88 -291 125 -378 139 -893
212 -1308 185z"/>
<path d="M5246 6208 c-13 -24 -241 -441 -506 -928 -265 -487 -484 -887 -485
-890 -2 -3 282 -158 631 -344 349 -186 646 -348 660 -359 30 -24 54 -74 54
-114 0 -15 -10 -45 -23 -65 -15 -26 -559 -469 -1802 -1468 -979 -787 -1782
-1435 -1783 -1440 -5 -13 149 -85 331 -156 560 -220 1204 -276 1811 -158 933
182 1746 770 2221 1608 167 295 294 640 359 974 80 410 80 854 0 1264 -160
825 -659 1588 -1346 2059 -47 32 -89 59 -92 59 -3 0 -16 -19 -30 -42z"/>
</g>
</svg>
